<svg version="1.1" id="Layer_1" xmlns="http://www.w3.org/2000/svg" xmlns:xlink="http://www.w3.org/1999/xlink" x="0px" y="0px"
	 width="100%" viewBox="0 0 800 2000" enable-background="new 0 0 800 2000" xml:space="preserve">
<path fill="#000000" opacity="1.000000" stroke="none" 
	d="
M1.000000,1395.000000 
	C1.000000,1379.312378 1.000000,1363.624878 1.465816,1347.409912 
	C5.097122,1346.833496 8.262609,1346.742065 11.428102,1346.741943 
	C145.088989,1346.734375 278.749969,1346.819824 412.410706,1346.672363 
	C443.879913,1346.637573 474.923950,1342.443359 505.241943,1333.941650 
	C549.392029,1321.561279 589.637634,1301.303223 625.828613,1273.035400 
	C667.917236,1240.161011 700.974792,1199.848267 724.193298,1151.833984 
	C752.567383,1093.158203 763.530762,1031.358887 756.318115,966.269714 
	C750.144409,910.555603 732.477661,859.091858 701.774963,812.278381 
	C665.932007,757.627197 618.498962,716.081299 559.184998,688.298706 
	C513.809509,667.044800 466.054871,656.210754 415.979797,656.163635 
	C280.819092,656.036560 145.658188,656.118530 10.497364,656.111389 
	C7.331574,656.111206 4.165788,656.038757 1.000000,656.000000 
	C1.000000,641.645752 1.000000,627.291565 1.467864,612.500122 
	C3.601364,612.083191 5.267088,612.126465 6.932626,612.120239 
	C92.750023,611.799622 178.567307,611.442261 264.384827,611.163391 
	C312.211365,611.007996 360.038269,610.988098 407.865021,610.892273 
	C414.972290,610.877991 417.198181,608.781311 417.797729,601.542358 
	C417.962402,599.554504 417.893494,597.545471 417.893860,595.546143 
	C417.899017,569.049622 417.898621,542.553162 417.896973,516.056641 
	C417.896271,504.906128 417.893402,504.906158 406.624298,504.998871 
	C399.359955,505.058655 399.032898,505.345612 399.025269,512.698242 
	C399.000519,536.528442 399.022064,560.358643 399.000458,584.188843 
	C398.993774,591.582214 398.633484,591.970581 391.483612,591.977539 
	C365.820343,592.002441 340.157043,592.002014 314.493774,591.979675 
	C307.359161,591.973511 306.990082,591.592773 306.980194,584.184509 
	C306.949951,561.520813 306.962158,538.857178 306.957123,516.193481 
	C306.954620,504.923828 306.953918,504.923828 295.837463,504.998291 
	C288.515564,505.047363 288.111420,505.392090 288.101593,512.578735 
	C288.068512,536.742188 288.100525,560.905701 288.050598,585.069031 
	C288.037628,591.350952 287.414429,591.959961 281.144165,591.968384 
	C255.147659,592.003418 229.151047,592.001587 203.154510,591.973389 
	C196.477081,591.966187 196.040268,591.521851 196.031525,584.835022 
	C196.001022,561.504761 196.016907,538.174500 196.013092,514.844238 
	C196.011307,503.943512 196.009171,503.943542 185.037811,503.989105 
	C177.531708,504.020264 177.179062,504.335724 177.170914,511.948090 
	C177.145065,536.111572 177.173630,560.275146 177.133194,584.438538 
	C177.121445,591.458618 176.616379,591.967163 169.830811,591.974548 
	C144.000916,592.002747 118.170967,592.002136 92.341064,591.975586 
	C85.449951,591.968506 85.036232,591.540039 85.027725,584.491455 
	C84.997940,559.828064 84.940331,535.164246 85.064552,510.501526 
	C85.087875,505.871307 83.563324,503.530487 78.713104,503.986755 
	C77.557205,504.095520 76.381676,503.991730 75.215172,503.992371 
	C66.317917,503.997345 66.264397,504.028534 66.257423,512.872986 
	C66.238365,537.036438 66.185844,561.200195 66.282005,585.363220 
	C66.299988,589.882507 64.852364,592.054382 59.971760,592.094849 
	C40.313354,592.257690 20.657068,592.676086 1.000000,593.000000 
	C1.000000,504.312439 1.000000,415.624878 1.467838,326.437195 
	C22.587278,325.912292 43.238876,325.884521 63.890480,325.863922 
	C75.156296,325.852692 75.156303,325.858154 74.916824,314.462646 
	C74.772667,307.602631 74.234520,307.011200 67.452492,307.003845 
	C45.301685,306.979889 23.150833,306.998016 1.000000,307.000000 
	C1.000000,205.109451 1.000000,103.218895 1.000000,1.000000 
	C34.686852,1.000000 68.374763,1.000000 102.888992,1.118864 
	C132.209503,8.748015 160.931839,15.493282 189.155762,23.909931 
	C279.105713,50.733891 363.344421,90.142738 442.446655,140.623138 
	C482.385345,166.110672 520.236511,194.387573 556.355774,225.032181 
	C602.831726,264.463776 645.464417,307.643890 684.171021,354.740234 
	C713.936646,390.957550 741.269714,428.904541 765.558838,468.978943 
	C777.896667,489.334930 789.218750,510.306641 801.000000,531.000000 
	C801.000000,843.354248 801.000000,1155.708496 800.739197,1468.740723 
	C799.714905,1470.503540 798.851379,1471.531860 798.203491,1472.681763 
	C790.764648,1485.883301 783.509216,1499.190308 775.914856,1512.301392 
	C755.267700,1547.947388 732.264099,1582.039917 707.243958,1614.746338 
	C668.174988,1665.817383 624.643860,1712.778564 576.957275,1755.937378 
	C538.460876,1790.778442 497.462158,1822.368896 454.196472,1850.979370 
	C408.127106,1881.444214 359.856415,1907.954834 309.349976,1930.433350 
	C253.191574,1955.427612 195.439133,1975.645264 135.672455,1990.049805 
	C120.137634,1993.793945 104.558685,1997.354980 89.000000,2001.000000 
	C59.699345,2001.000000 30.398689,2001.000000 1.000000,2001.000000 
	C1.000000,1899.645752 1.000000,1798.291504 1.467905,1696.438477 
	C22.427057,1695.916382 42.918301,1695.889160 63.409550,1695.870850 
	C75.241753,1695.860352 75.241760,1695.866821 74.917824,1683.980103 
	C74.747238,1677.720459 74.036407,1677.003418 67.472542,1676.997559 
	C45.315044,1676.977661 23.157516,1676.996094 1.000000,1677.000000 
	C1.000000,1589.312378 1.000000,1501.624878 1.468454,1413.484375 
	C20.435116,1413.013794 38.933323,1412.987305 57.431534,1412.982666 
	C64.637245,1412.980835 65.174881,1413.467896 65.185028,1420.596436 
	C65.217979,1443.760864 65.198624,1466.925415 65.202332,1490.089844 
	C65.204086,1501.048096 65.207100,1501.048096 76.200325,1500.953247 
	C83.560905,1500.889771 84.002655,1500.468872 84.009056,1492.842163 
	C84.029350,1468.677734 84.004845,1444.513428 84.031860,1420.348999 
	C84.039619,1413.411377 84.497078,1412.970093 91.442818,1412.964233 
	C117.107025,1412.942871 142.771255,1412.946167 168.435486,1412.946777 
	C175.566269,1412.947021 176.100555,1413.432861 176.110306,1420.648071 
	C176.141647,1443.812500 176.123077,1466.977051 176.127045,1490.141479 
	C176.128922,1501.040649 176.132324,1501.040771 187.195480,1500.953613 
	C194.626556,1500.895020 194.996170,1500.546509 195.001938,1492.895020 
	C195.020142,1468.730591 194.996552,1444.566284 195.024323,1420.401855 
	C195.032364,1413.408936 195.500366,1412.961426 202.374252,1412.957886 
	C228.038483,1412.944580 253.702713,1412.948120 279.366943,1412.953979 
	C286.581268,1412.955566 287.036285,1413.375000 287.043945,1420.607178 
	C287.068481,1443.771606 287.052612,1466.936157 287.056671,1490.100586 
	C287.058594,1501.035889 287.063080,1501.035889 298.139832,1500.953491 
	C305.577454,1500.898315 305.925659,1500.574097 305.931763,1492.886597 
	C305.951202,1468.388916 305.926483,1443.891235 305.954559,1419.393555 
	C305.962433,1412.506226 306.557983,1411.913452 313.342743,1411.908936 
	C339.006958,1411.891968 364.671204,1411.897217 390.335419,1411.918701 
	C397.553375,1411.924683 397.977509,1412.335327 397.986206,1419.598267 
	C398.014343,1443.096069 397.998779,1466.593872 398.002014,1490.091675 
	C398.003479,1501.036621 398.005463,1501.036621 409.035339,1500.950928 
	C416.372162,1500.893921 416.860931,1500.484497 416.867493,1493.412964 
	C416.894135,1464.749023 416.899353,1436.085083 416.866425,1407.421143 
	C416.856628,1398.894287 410.883911,1392.968262 402.436249,1393.001343 
	C316.448059,1393.338989 230.459671,1393.642944 144.471786,1394.049561 
	C96.647430,1394.275635 48.823902,1394.677368 1.000000,1395.000000 
z"/>
<path fill="#000000" opacity="1.000000" stroke="none" 
	d="
M1.000000,1329.000000 
	C1.000000,1111.639771 1.000000,894.279602 1.468656,676.461060 
	C97.597229,676.003601 193.257141,675.988892 288.917053,676.022095 
	C303.682648,676.027161 301.249420,674.670654 305.072815,687.289673 
	C306.233124,691.119202 308.317505,692.141052 312.197266,691.085815 
	C322.481567,688.288574 332.865662,685.859314 343.161652,683.102783 
	C344.762360,682.674255 347.094940,681.536255 347.393921,680.312195 
	C348.432220,676.061035 351.344757,675.926147 354.660828,676.008789 
	C368.303528,676.348633 381.946716,676.668091 395.589417,677.008728 
	C402.747009,677.187439 403.051361,677.517822 403.109802,684.867371 
	C403.117767,685.867249 403.113373,686.867188 403.113373,687.867126 
	C403.113464,897.353027 403.113647,1106.838867 403.110657,1316.324829 
	C403.110626,1318.490967 403.042816,1320.657349 403.050995,1322.823364 
	C403.063568,1326.153442 401.300415,1327.679077 398.102417,1327.759033 
	C383.127991,1328.133789 368.153412,1328.501953 353.178802,1328.870117 
	C350.394867,1328.938477 348.726105,1327.985107 347.615692,1325.034790 
	C346.978333,1323.341309 344.495483,1321.773438 342.545746,1321.242676 
	C334.672394,1319.099854 326.654083,1317.496948 318.743805,1315.480713 
	C306.971313,1312.479980 306.857788,1312.360840 303.273804,1323.696655 
	C302.126038,1327.326904 300.196045,1328.945312 296.476318,1328.828125 
	C293.480896,1328.733643 290.478363,1328.893555 287.478973,1328.893799 
	C195.151855,1328.898560 102.824738,1328.896729 10.497624,1328.901978 
	C7.331748,1328.902222 4.165874,1328.965820 1.000000,1329.000000 
M155.659866,1233.875488 
	C161.887192,1240.320435 167.917908,1246.970947 174.389954,1253.160034 
	C183.150024,1261.536865 183.294983,1261.384766 191.409973,1252.635620 
	C191.861603,1252.148682 192.289688,1251.633179 192.785797,1251.195557 
	C195.675766,1248.646240 195.422256,1246.309692 192.697281,1243.682007 
	C186.727295,1237.925537 180.910751,1232.009644 175.042221,1226.148315 
	C164.362732,1215.481689 168.102173,1214.769775 155.281219,1225.620850 
	C152.082642,1228.328003 152.100266,1230.745605 155.659866,1233.875488 
M176.224838,747.734497 
	C170.808365,753.134460 165.360794,758.503662 159.982361,763.941284 
	C150.850327,773.173950 150.868683,773.192017 160.955429,781.502747 
	C165.671249,785.388123 166.568695,785.293091 170.792694,780.944092 
	C176.697891,774.863892 182.596252,768.773560 188.638290,762.830688 
	C195.944641,755.644348 195.949448,755.758484 189.438156,748.009399 
	C182.661880,739.945007 184.125168,740.987000 176.224838,747.734497 
M115.334076,854.826904 
	C118.327225,856.124084 119.522316,854.114441 120.725037,851.966736 
	C124.870804,844.563416 128.876846,837.073730 133.266830,829.816956 
	C141.282623,816.566589 142.026505,820.657227 128.809402,811.076111 
	C128.540695,810.881287 128.235245,810.737488 127.964508,810.545166 
	C125.577263,808.848877 123.545158,809.258972 122.100555,811.747986 
	C115.841888,822.531433 109.634766,833.344910 103.418060,844.152710 
	C101.928215,846.742859 102.778610,848.557983 105.326950,849.821472 
	C108.457542,851.373474 111.569946,852.962280 115.334076,854.826904 
M222.220245,1284.525391 
	C219.993256,1287.206421 220.549042,1289.347168 223.476974,1291.036377 
	C233.985504,1297.098999 244.502426,1303.147095 254.994614,1309.237915 
	C258.252686,1311.129272 260.229218,1310.030396 261.639404,1306.808472 
	C262.837738,1304.070557 264.110229,1301.342529 265.622589,1298.770508 
	C267.333313,1295.861206 266.933472,1294.149170 263.791840,1292.448486 
	C256.050995,1288.258301 248.458389,1283.785278 240.902191,1279.265381 
	C229.954575,1272.717163 229.990784,1272.656738 222.893906,1283.535400 
	C222.803040,1283.674683 222.709457,1283.812134 222.220245,1284.525391 
M84.604004,1010.863525 
	C84.643257,1002.234497 84.652870,993.605225 84.739456,984.976685 
	C84.766151,982.316833 84.604225,979.347107 81.321289,979.416809 
	C76.444534,979.520203 71.178650,976.394409 66.723740,980.692566 
	C66.234009,981.165100 66.227501,982.268311 66.212166,983.083069 
	C65.999641,994.371521 65.554611,1005.665283 65.743378,1016.948059 
	C65.854301,1023.578735 66.803070,1024.018433 73.236656,1023.898987 
	C85.093948,1023.678772 85.302979,1023.457642 84.604004,1010.863525 
M75.477982,1067.881470 
	C72.115303,1068.658081 72.079071,1070.941650 72.769348,1073.663452 
	C74.972580,1082.350952 77.072212,1091.064819 79.308754,1099.743530 
	C82.777122,1113.202271 82.776680,1113.107300 95.604919,1108.014282 
	C99.226608,1106.576538 100.498222,1104.506348 99.463921,1100.742432 
	C97.396942,1093.220459 95.488976,1085.654785 93.497498,1078.111938 
	C89.882111,1064.418823 89.876656,1064.420288 75.477982,1067.881470 
M119.926208,1148.549683 
	C118.099159,1148.065308 116.062088,1146.825439 114.491028,1147.262085 
	C111.667465,1148.046997 109.191010,1149.995483 106.446548,1151.170654 
	C102.676735,1152.785156 101.943771,1155.066406 103.984009,1158.613770 
	C108.542664,1166.539795 112.578949,1174.793823 117.533096,1182.458496 
	C125.213158,1194.340332 122.312332,1194.280029 135.065170,1186.283813 
	C139.130692,1183.734741 139.460907,1181.541138 136.947876,1177.533936 
	C131.125229,1168.249268 125.797379,1158.654419 119.926208,1148.549683 
M260.246735,711.668884 
	C267.734100,707.974854 267.784027,707.822937 263.982056,700.548767 
	C263.287476,699.219910 262.487152,697.929932 261.947021,696.539856 
	C260.371460,692.484924 257.785583,691.750366 254.103378,693.853699 
	C245.429108,698.808594 236.601028,703.508240 228.074326,708.703613 
	C218.327621,714.642517 219.373596,714.305115 224.892288,721.942139 
	C225.474579,722.747925 225.873291,723.683777 226.402527,724.530884 
	C229.358063,729.261719 230.446106,729.376587 235.107269,726.524414 
	C243.199463,721.572876 251.414780,716.822632 260.246735,711.668884 
M74.795914,923.197815 
	C72.528870,933.212463 72.528954,933.212036 82.764999,935.249329 
	C83.904892,935.476257 85.061821,935.644958 86.178383,935.956909 
	C89.834641,936.978516 91.605438,935.724915 92.414642,931.889587 
	C94.160683,923.614075 96.200096,915.392761 98.375587,907.217468 
	C101.755508,894.516052 103.719498,896.524170 89.010666,891.086426 
	C85.410019,889.755249 83.370003,890.722351 82.396355,894.480896 
	C79.983597,903.795044 77.443848,913.076294 74.795914,923.197815 
z"/>
<path fill="#000000" opacity="1.000000" stroke="none" 
	d="
M801.000000,1509.000000 
	C801.000000,1672.937744 801.000000,1836.875366 801.000000,2001.000000 
	C594.307556,2001.000000 387.615021,2001.000000 180.599930,2000.676025 
	C182.178589,1999.413452 183.990646,1998.173950 185.994080,1997.579834 
	C228.689041,1984.919067 270.410980,1969.619995 311.165497,1951.670410 
	C360.193451,1930.076782 407.277039,1904.814697 452.224030,1875.709595 
	C473.596130,1861.870239 494.809875,1847.618774 514.915283,1832.031860 
	C541.874512,1811.131592 568.556946,1789.707031 593.748047,1766.741455 
	C617.953247,1744.674683 640.832581,1721.020752 662.947754,1696.833008 
	C683.600098,1674.245117 703.174377,1650.577881 721.982422,1626.419678 
	C749.838501,1590.639282 774.501709,1552.621094 797.073181,1513.268799 
	C798.011414,1511.633179 799.674561,1510.413452 801.000000,1509.000000 
z"/>
<path fill="#000000" opacity="1.000000" stroke="none" 
	d="
M185.000000,1.000000 
	C390.254852,1.000000 595.509705,1.000000 801.000000,1.000000 
	C801.000000,164.025757 801.000000,327.051605 800.671448,490.442078 
	C798.997437,489.149994 797.383911,487.645264 796.345947,485.814270 
	C775.206604,448.523224 751.290833,413.079712 725.737061,378.688568 
	C696.373535,339.170288 664.197266,302.043884 629.174927,267.542938 
	C605.951904,244.665680 581.566833,222.884613 556.762695,201.713272 
	C505.935974,158.330551 450.715271,121.204414 392.155365,89.018456 
	C327.993713,53.753643 260.964417,25.358677 190.781311,4.434744 
	C188.698044,3.813651 186.920227,2.167972 185.000000,1.000000 
z"/>
<path fill="#282828" opacity="1.000000" stroke="none" 
	d="
M1.000000,1329.468018 
	C4.165874,1328.965820 7.331748,1328.902222 10.497624,1328.901978 
	C102.824738,1328.896729 195.151855,1328.898560 287.478973,1328.893799 
	C290.478363,1328.893555 293.480896,1328.733643 296.476318,1328.828125 
	C300.196045,1328.945312 302.126038,1327.326904 303.273804,1323.696655 
	C306.857788,1312.360840 306.971313,1312.479980 318.743805,1315.480713 
	C326.654083,1317.496948 334.672394,1319.099854 342.545746,1321.242676 
	C344.495483,1321.773438 346.978333,1323.341309 347.615692,1325.034790 
	C348.726105,1327.985107 350.394867,1328.938477 353.178802,1328.870117 
	C368.153412,1328.501953 383.127991,1328.133789 398.102417,1327.759033 
	C401.300415,1327.679077 403.063568,1326.153442 403.050995,1322.823364 
	C403.042816,1320.657349 403.110626,1318.490967 403.110657,1316.324829 
	C403.113647,1106.838867 403.113464,897.353027 403.113373,687.867126 
	C403.113373,686.867188 403.117767,685.867249 403.109802,684.867371 
	C403.051361,677.517822 402.747009,677.187439 395.589417,677.008728 
	C381.946716,676.668091 368.303528,676.348633 354.660828,676.008789 
	C351.344757,675.926147 348.432220,676.061035 347.393921,680.312195 
	C347.094940,681.536255 344.762360,682.674255 343.161652,683.102783 
	C332.865662,685.859314 322.481567,688.288574 312.197266,691.085815 
	C308.317505,692.141052 306.233124,691.119202 305.072815,687.289673 
	C301.249420,674.670654 303.682648,676.027161 288.917053,676.022095 
	C193.257141,675.988892 97.597229,676.003601 1.468656,676.001343 
	C1.000000,669.645569 1.000000,663.291199 1.000000,656.468384 
	C4.165788,656.038757 7.331574,656.111206 10.497364,656.111389 
	C145.658188,656.118530 280.819092,656.036560 415.979797,656.163635 
	C466.054871,656.210754 513.809509,667.044800 559.184998,688.298706 
	C618.498962,716.081299 665.932007,757.627197 701.774963,812.278381 
	C732.477661,859.091858 750.144409,910.555603 756.318115,966.269714 
	C763.530762,1031.358887 752.567383,1093.158203 724.193298,1151.833984 
	C700.974792,1199.848267 667.917236,1240.161011 625.828613,1273.035400 
	C589.637634,1301.303223 549.392029,1321.561279 505.241943,1333.941650 
	C474.923950,1342.443359 443.879913,1346.637573 412.410706,1346.672363 
	C278.749969,1346.819824 145.088989,1346.734375 11.428102,1346.741943 
	C8.262609,1346.742065 5.097122,1346.833496 1.465816,1346.941162 
	C1.000000,1341.312012 1.000000,1335.623901 1.000000,1329.468018 
M737.719116,1047.132080 
	C742.480408,1017.250916 741.510986,987.341553 737.482666,957.525024 
	C730.603821,906.609680 712.396179,859.997803 683.262695,817.649963 
	C654.526306,775.879272 617.933777,742.609680 573.854126,717.799561 
	C529.439880,692.800964 481.581970,679.071472 430.615784,676.379211 
	C422.587952,675.955139 422.006012,676.342346 422.005737,684.362732 
	C421.998199,895.643982 421.997986,1106.925171 422.005127,1318.206421 
	C422.005402,1325.892822 422.458862,1326.404297 430.355560,1326.095215 
	C460.193268,1324.927490 489.213593,1319.267944 517.472473,1309.734741 
	C575.546509,1290.143188 624.509338,1256.911133 664.069397,1210.199829 
	C703.888000,1163.183350 728.386658,1109.005981 737.719116,1047.132080 
z"/>
<path fill="#282828" opacity="1.000000" stroke="none" 
	d="
M801.000000,1508.531372 
	C799.674561,1510.413452 798.011414,1511.633179 797.073181,1513.268799 
	C774.501709,1552.621094 749.838501,1590.639282 721.982422,1626.419678 
	C703.174377,1650.577881 683.600098,1674.245117 662.947754,1696.833008 
	C640.832581,1721.020752 617.953247,1744.674683 593.748047,1766.741455 
	C568.556946,1789.707031 541.874512,1811.131592 514.915283,1832.031860 
	C494.809875,1847.618774 473.596130,1861.870239 452.224030,1875.709595 
	C407.277039,1904.814697 360.193451,1930.076782 311.165497,1951.670410 
	C270.410980,1969.619995 228.689041,1984.919067 185.994080,1997.579834 
	C183.990646,1998.173950 182.178589,1999.413452 180.138672,2000.676025 
	C149.979111,2001.000000 119.958214,2001.000000 89.468658,2001.000000 
	C104.558685,1997.354980 120.137634,1993.793945 135.672455,1990.049805 
	C195.439133,1975.645264 253.191574,1955.427612 309.349976,1930.433350 
	C359.856415,1907.954834 408.127106,1881.444214 454.196472,1850.979370 
	C497.462158,1822.368896 538.460876,1790.778442 576.957275,1755.937378 
	C624.643860,1712.778564 668.174988,1665.817383 707.243958,1614.746338 
	C732.264099,1582.039917 755.267700,1547.947388 775.914856,1512.301392 
	C783.509216,1499.190308 790.764648,1485.883301 798.203491,1472.681763 
	C798.851379,1471.531860 799.714905,1470.503540 800.739197,1469.209473 
	C801.000000,1482.020874 801.000000,1495.041870 801.000000,1508.531372 
z"/>
<path fill="#282828" opacity="1.000000" stroke="none" 
	d="
M184.531342,1.000000 
	C186.920227,2.167972 188.698044,3.813651 190.781311,4.434744 
	C260.964417,25.358677 327.993713,53.753643 392.155365,89.018456 
	C450.715271,121.204414 505.935974,158.330551 556.762695,201.713272 
	C581.566833,222.884613 605.951904,244.665680 629.174927,267.542938 
	C664.197266,302.043884 696.373535,339.170288 725.737061,378.688568 
	C751.290833,413.079712 775.206604,448.523224 796.345947,485.814270 
	C797.383911,487.645264 798.997437,489.149994 800.671448,490.903320 
	C801.000000,504.020905 801.000000,517.041809 801.000000,530.531372 
	C789.218750,510.306641 777.896667,489.334930 765.558838,468.978943 
	C741.269714,428.904541 713.936646,390.957550 684.171021,354.740234 
	C645.464417,307.643890 602.831726,264.463776 556.355774,225.032181 
	C520.236511,194.387573 482.385345,166.110672 442.446655,140.623138 
	C363.344421,90.142738 279.105713,50.733891 189.155762,23.909931 
	C160.931839,15.493282 132.209503,8.748015 103.357651,1.118864 
	C130.020889,1.000000 157.041794,1.000000 184.531342,1.000000 
z"/>
<path fill="#282828" opacity="1.000000" stroke="none" 
	d="
M1.000000,593.468262 
	C20.657068,592.676086 40.313354,592.257690 59.971760,592.094849 
	C64.852364,592.054382 66.299988,589.882507 66.282005,585.363220 
	C66.185844,561.200195 66.238365,537.036438 66.257423,512.872986 
	C66.264397,504.028534 66.317917,503.997345 75.215172,503.992371 
	C76.381676,503.991730 77.557205,504.095520 78.713104,503.986755 
	C83.563324,503.530487 85.087875,505.871307 85.064552,510.501526 
	C84.940331,535.164246 84.997940,559.828064 85.027725,584.491455 
	C85.036232,591.540039 85.449951,591.968506 92.341064,591.975586 
	C118.170967,592.002136 144.000916,592.002747 169.830811,591.974548 
	C176.616379,591.967163 177.121445,591.458618 177.133194,584.438538 
	C177.173630,560.275146 177.145065,536.111572 177.170914,511.948090 
	C177.179062,504.335724 177.531708,504.020264 185.037811,503.989105 
	C196.009171,503.943542 196.011307,503.943512 196.013092,514.844238 
	C196.016907,538.174500 196.001022,561.504761 196.031525,584.835022 
	C196.040268,591.521851 196.477081,591.966187 203.154510,591.973389 
	C229.151047,592.001587 255.147659,592.003418 281.144165,591.968384 
	C287.414429,591.959961 288.037628,591.350952 288.050598,585.069031 
	C288.100525,560.905701 288.068512,536.742188 288.101593,512.578735 
	C288.111420,505.392090 288.515564,505.047363 295.837463,504.998291 
	C306.953918,504.923828 306.954620,504.923828 306.957123,516.193481 
	C306.962158,538.857178 306.949951,561.520813 306.980194,584.184509 
	C306.990082,591.592773 307.359161,591.973511 314.493774,591.979675 
	C340.157043,592.002014 365.820343,592.002441 391.483612,591.977539 
	C398.633484,591.970581 398.993774,591.582214 399.000458,584.188843 
	C399.022064,560.358643 399.000519,536.528442 399.025269,512.698242 
	C399.032898,505.345612 399.359955,505.058655 406.624298,504.998871 
	C417.893402,504.906158 417.896271,504.906128 417.896973,516.056641 
	C417.898621,542.553162 417.899017,569.049622 417.893860,595.546143 
	C417.893494,597.545471 417.962402,599.554504 417.797729,601.542358 
	C417.198181,608.781311 414.972290,610.877991 407.865021,610.892273 
	C360.038269,610.988098 312.211365,611.007996 264.384827,611.163391 
	C178.567307,611.442261 92.750023,611.799622 6.932626,612.120239 
	C5.267088,612.126465 3.601364,612.083191 1.467864,612.031494 
	C1.000000,605.978821 1.000000,599.957703 1.000000,593.468262 
z"/>
<path fill="#282828" opacity="1.000000" stroke="none" 
	d="
M1.000000,1395.468018 
	C48.823902,1394.677368 96.647430,1394.275635 144.471786,1394.049561 
	C230.459671,1393.642944 316.448059,1393.338989 402.436249,1393.001343 
	C410.883911,1392.968262 416.856628,1398.894287 416.866425,1407.421143 
	C416.899353,1436.085083 416.894135,1464.749023 416.867493,1493.412964 
	C416.860931,1500.484497 416.372162,1500.893921 409.035339,1500.950928 
	C398.005463,1501.036621 398.003479,1501.036621 398.002014,1490.091675 
	C397.998779,1466.593872 398.014343,1443.096069 397.986206,1419.598267 
	C397.977509,1412.335327 397.553375,1411.924683 390.335419,1411.918701 
	C364.671204,1411.897217 339.006958,1411.891968 313.342743,1411.908936 
	C306.557983,1411.913452 305.962433,1412.506226 305.954559,1419.393555 
	C305.926483,1443.891235 305.951202,1468.388916 305.931763,1492.886597 
	C305.925659,1500.574097 305.577454,1500.898315 298.139832,1500.953491 
	C287.063080,1501.035889 287.058594,1501.035889 287.056671,1490.100586 
	C287.052612,1466.936157 287.068481,1443.771606 287.043945,1420.607178 
	C287.036285,1413.375000 286.581268,1412.955566 279.366943,1412.953979 
	C253.702713,1412.948120 228.038483,1412.944580 202.374252,1412.957886 
	C195.500366,1412.961426 195.032364,1413.408936 195.024323,1420.401855 
	C194.996552,1444.566284 195.020142,1468.730591 195.001938,1492.895020 
	C194.996170,1500.546509 194.626556,1500.895020 187.195480,1500.953613 
	C176.132324,1501.040771 176.128922,1501.040649 176.127045,1490.141479 
	C176.123077,1466.977051 176.141647,1443.812500 176.110306,1420.648071 
	C176.100555,1413.432861 175.566269,1412.947021 168.435486,1412.946777 
	C142.771255,1412.946167 117.107025,1412.942871 91.442818,1412.964233 
	C84.497078,1412.970093 84.039619,1413.411377 84.031860,1420.348999 
	C84.004845,1444.513428 84.029350,1468.677734 84.009056,1492.842163 
	C84.002655,1500.468872 83.560905,1500.889771 76.200325,1500.953247 
	C65.207100,1501.048096 65.204086,1501.048096 65.202332,1490.089844 
	C65.198624,1466.925415 65.217979,1443.760864 65.185028,1420.596436 
	C65.174881,1413.467896 64.637245,1412.980835 57.431534,1412.982666 
	C38.933323,1412.987305 20.435116,1413.013794 1.468454,1413.015747 
	C1.000000,1407.312012 1.000000,1401.623901 1.000000,1395.468018 
z"/>
<path fill="#282828" opacity="1.000000" stroke="none" 
	d="
M1.000000,1677.468262 
	C23.157516,1676.996094 45.315044,1676.977661 67.472542,1676.997559 
	C74.036407,1677.003418 74.747238,1677.720459 74.917824,1683.980103 
	C75.241760,1695.866821 75.241753,1695.860352 63.409550,1695.870850 
	C42.918301,1695.889160 22.427057,1695.916382 1.467905,1695.969971 
	C1.000000,1689.978882 1.000000,1683.957642 1.000000,1677.468262 
z"/>
<path fill="#282828" opacity="1.000000" stroke="none" 
	d="
M1.000000,307.468262 
	C23.150833,306.998016 45.301685,306.979889 67.452492,307.003845 
	C74.234520,307.011200 74.772667,307.602631 74.916824,314.462646 
	C75.156303,325.858154 75.156296,325.852692 63.890480,325.863922 
	C43.238876,325.884521 22.587278,325.912292 1.467838,325.968536 
	C1.000000,319.978851 1.000000,313.957703 1.000000,307.468262 
z"/>
<path fill="#282828" opacity="1.000000" stroke="none" 
	d="
M155.415604,1233.625244 
	C152.100266,1230.745605 152.082642,1228.328003 155.281219,1225.620850 
	C168.102173,1214.769775 164.362732,1215.481689 175.042221,1226.148315 
	C180.910751,1232.009644 186.727295,1237.925537 192.697281,1243.682007 
	C195.422256,1246.309692 195.675766,1248.646240 192.785797,1251.195557 
	C192.289688,1251.633179 191.861603,1252.148682 191.409973,1252.635620 
	C183.294983,1261.384766 183.150024,1261.536865 174.389954,1253.160034 
	C167.917908,1246.970947 161.887192,1240.320435 155.415604,1233.625244 
z"/>
<path fill="#282828" opacity="1.000000" stroke="none" 
	d="
M176.478607,747.494568 
	C184.125168,740.987000 182.661880,739.945007 189.438156,748.009399 
	C195.949448,755.758484 195.944641,755.644348 188.638290,762.830688 
	C182.596252,768.773560 176.697891,774.863892 170.792694,780.944092 
	C166.568695,785.293091 165.671249,785.388123 160.955429,781.502747 
	C150.868683,773.192017 150.850327,773.173950 159.982361,763.941284 
	C165.360794,758.503662 170.808365,753.134460 176.478607,747.494568 
z"/>
<path fill="#282828" opacity="1.000000" stroke="none" 
	d="
M115.012146,854.681030 
	C111.569946,852.962280 108.457542,851.373474 105.326950,849.821472 
	C102.778610,848.557983 101.928215,846.742859 103.418060,844.152710 
	C109.634766,833.344910 115.841888,822.531433 122.100555,811.747986 
	C123.545158,809.258972 125.577263,808.848877 127.964508,810.545166 
	C128.235245,810.737488 128.540695,810.881287 128.809402,811.076111 
	C142.026505,820.657227 141.282623,816.566589 133.266830,829.816956 
	C128.876846,837.073730 124.870804,844.563416 120.725037,851.966736 
	C119.522316,854.114441 118.327225,856.124084 115.012146,854.681030 
z"/>
<path fill="#282828" opacity="1.000000" stroke="none" 
	d="
M222.418701,1284.237915 
	C222.709457,1283.812134 222.803040,1283.674683 222.893906,1283.535400 
	C229.990784,1272.656738 229.954575,1272.717163 240.902191,1279.265381 
	C248.458389,1283.785278 256.050995,1288.258301 263.791840,1292.448486 
	C266.933472,1294.149170 267.333313,1295.861206 265.622589,1298.770508 
	C264.110229,1301.342529 262.837738,1304.070557 261.639404,1306.808472 
	C260.229218,1310.030396 258.252686,1311.129272 254.994614,1309.237915 
	C244.502426,1303.147095 233.985504,1297.098999 223.476974,1291.036377 
	C220.549042,1289.347168 219.993256,1287.206421 222.418701,1284.237915 
z"/>
<path fill="#282828" opacity="1.000000" stroke="none" 
	d="
M84.642685,1011.326782 
	C85.302979,1023.457642 85.093948,1023.678772 73.236656,1023.898987 
	C66.803070,1024.018433 65.854301,1023.578735 65.743378,1016.948059 
	C65.554611,1005.665283 65.999641,994.371521 66.212166,983.083069 
	C66.227501,982.268311 66.234009,981.165100 66.723740,980.692566 
	C71.178650,976.394409 76.444534,979.520203 81.321289,979.416809 
	C84.604225,979.347107 84.766151,982.316833 84.739456,984.976685 
	C84.652870,993.605225 84.643257,1002.234497 84.642685,1011.326782 
z"/>
<path fill="#282828" opacity="1.000000" stroke="none" 
	d="
M75.857872,1067.774658 
	C89.876656,1064.420288 89.882111,1064.418823 93.497498,1078.111938 
	C95.488976,1085.654785 97.396942,1093.220459 99.463921,1100.742432 
	C100.498222,1104.506348 99.226608,1106.576538 95.604919,1108.014282 
	C82.776680,1113.107300 82.777122,1113.202271 79.308754,1099.743530 
	C77.072212,1091.064819 74.972580,1082.350952 72.769348,1073.663452 
	C72.079071,1070.941650 72.115303,1068.658081 75.857872,1067.774658 
z"/>
<path fill="#282828" opacity="1.000000" stroke="none" 
	d="
M120.097580,1148.867432 
	C125.797379,1158.654419 131.125229,1168.249268 136.947876,1177.533936 
	C139.460907,1181.541138 139.130692,1183.734741 135.065170,1186.283813 
	C122.312332,1194.280029 125.213158,1194.340332 117.533096,1182.458496 
	C112.578949,1174.793823 108.542664,1166.539795 103.984009,1158.613770 
	C101.943771,1155.066406 102.676735,1152.785156 106.446548,1151.170654 
	C109.191010,1149.995483 111.667465,1148.046997 114.491028,1147.262085 
	C116.062088,1146.825439 118.099159,1148.065308 120.097580,1148.867432 
z"/>
<path fill="#282828" opacity="1.000000" stroke="none" 
	d="
M259.912598,711.828369 
	C251.414780,716.822632 243.199463,721.572876 235.107269,726.524414 
	C230.446106,729.376587 229.358063,729.261719 226.402527,724.530884 
	C225.873291,723.683777 225.474579,722.747925 224.892288,721.942139 
	C219.373596,714.305115 218.327621,714.642517 228.074326,708.703613 
	C236.601028,703.508240 245.429108,698.808594 254.103378,693.853699 
	C257.785583,691.750366 260.371460,692.484924 261.947021,696.539856 
	C262.487152,697.929932 263.287476,699.219910 263.982056,700.548767 
	C267.784027,707.822937 267.734100,707.974854 259.912598,711.828369 
z"/>
<path fill="#282828" opacity="1.000000" stroke="none" 
	d="
M74.875504,922.784302 
	C77.443848,913.076294 79.983597,903.795044 82.396355,894.480896 
	C83.370003,890.722351 85.410019,889.755249 89.010666,891.086426 
	C103.719498,896.524170 101.755508,894.516052 98.375587,907.217468 
	C96.200096,915.392761 94.160683,923.614075 92.414642,931.889587 
	C91.605438,935.724915 89.834641,936.978516 86.178383,935.956909 
	C85.061821,935.644958 83.904892,935.476257 82.764999,935.249329 
	C72.528954,933.212036 72.528870,933.212463 74.875504,922.784302 
z"/>
<path fill="#000000" opacity="1.000000" stroke="none" 
	d="
M737.658447,1047.569092 
	C728.386658,1109.005981 703.888000,1163.183350 664.069397,1210.199829 
	C624.509338,1256.911133 575.546509,1290.143188 517.472473,1309.734741 
	C489.213593,1319.267944 460.193268,1324.927490 430.355560,1326.095215 
	C422.458862,1326.404297 422.005402,1325.892822 422.005127,1318.206421 
	C421.997986,1106.925171 421.998199,895.643982 422.005737,684.362732 
	C422.006012,676.342346 422.587952,675.955139 430.615784,676.379211 
	C481.581970,679.071472 529.439880,692.800964 573.854126,717.799561 
	C617.933777,742.609680 654.526306,775.879272 683.262695,817.649963 
	C712.396179,859.997803 730.603821,906.609680 737.482666,957.525024 
	C741.510986,987.341553 742.480408,1017.250916 737.658447,1047.569092 
z"/>
</svg>